<mxfile host="app.diagrams.net" modified="2024-06-03T14:35:57.834Z" agent="Mozilla/5.0 (X11; CrOS x86_64 14816.131.0) AppleWebKit/537.36 (KHTML, like Gecko) Chrome/103.0.0.0 Safari/537.36" etag="vc7GSAGsPRWz5UjhQJPP" version="24.4.13" type="github">
  <diagram name="PÃ¡gina-1" id="VFWA_73j2h773FXtAvmm">
    <mxGraphModel dx="880" dy="476" grid="1" gridSize="10" guides="1" tooltips="1" connect="1" arrows="1" fold="1" page="1" pageScale="1" pageWidth="827" pageHeight="1169" math="0" shadow="0">
      <root>
        <mxCell id="0" />
        <mxCell id="1" parent="0" />
        <mxCell id="AloR8kPqKaJr0pB_M7WY-1" value="Pessoa" style="swimlane;fontStyle=0;childLayout=stackLayout;horizontal=1;startSize=26;fillColor=none;horizontalStack=0;resizeParent=1;resizeParentMax=0;resizeLast=0;collapsible=1;marginBottom=0;whiteSpace=wrap;html=1;" parent="1" vertex="1">
          <mxGeometry x="110" y="100" width="160" height="156" as="geometry">
            <mxRectangle x="10" y="230" width="80" height="30" as="alternateBounds" />
          </mxGeometry>
        </mxCell>
        <mxCell id="AloR8kPqKaJr0pB_M7WY-2" value="# nomePessoa: String" style="text;strokeColor=none;fillColor=none;align=left;verticalAlign=top;spacingLeft=4;spacingRight=4;overflow=hidden;rotatable=0;points=[[0,0.5],[1,0.5]];portConstraint=eastwest;whiteSpace=wrap;html=1;" parent="AloR8kPqKaJr0pB_M7WY-1" vertex="1">
          <mxGeometry y="26" width="160" height="26" as="geometry" />
        </mxCell>
        <mxCell id="AloR8kPqKaJr0pB_M7WY-3" value="# enderecoPessoa: String" style="text;strokeColor=none;fillColor=none;align=left;verticalAlign=top;spacingLeft=4;spacingRight=4;overflow=hidden;rotatable=0;points=[[0,0.5],[1,0.5]];portConstraint=eastwest;whiteSpace=wrap;html=1;" parent="AloR8kPqKaJr0pB_M7WY-1" vertex="1">
          <mxGeometry y="52" width="160" height="26" as="geometry" />
        </mxCell>
        <mxCell id="AloR8kPqKaJr0pB_M7WY-4" value="# telefonePessoa: String" style="text;strokeColor=none;fillColor=none;align=left;verticalAlign=top;spacingLeft=4;spacingRight=4;overflow=hidden;rotatable=0;points=[[0,0.5],[1,0.5]];portConstraint=eastwest;whiteSpace=wrap;html=1;" parent="AloR8kPqKaJr0pB_M7WY-1" vertex="1">
          <mxGeometry y="78" width="160" height="26" as="geometry" />
        </mxCell>
        <mxCell id="AloR8kPqKaJr0pB_M7WY-8" value="# cepPessoa: long" style="text;strokeColor=none;fillColor=none;align=left;verticalAlign=top;spacingLeft=4;spacingRight=4;overflow=hidden;rotatable=0;points=[[0,0.5],[1,0.5]];portConstraint=eastwest;whiteSpace=wrap;html=1;" parent="AloR8kPqKaJr0pB_M7WY-1" vertex="1">
          <mxGeometry y="104" width="160" height="26" as="geometry" />
        </mxCell>
        <mxCell id="AloR8kPqKaJr0pB_M7WY-7" value="# rendaPessoa: float" style="text;strokeColor=none;fillColor=none;align=left;verticalAlign=top;spacingLeft=4;spacingRight=4;overflow=hidden;rotatable=0;points=[[0,0.5],[1,0.5]];portConstraint=eastwest;whiteSpace=wrap;html=1;" parent="AloR8kPqKaJr0pB_M7WY-1" vertex="1">
          <mxGeometry y="130" width="160" height="26" as="geometry" />
        </mxCell>
        <mxCell id="AloR8kPqKaJr0pB_M7WY-13" value="PessoaJuridica" style="swimlane;fontStyle=0;childLayout=stackLayout;horizontal=1;startSize=26;fillColor=none;horizontalStack=0;resizeParent=1;resizeParentMax=0;resizeLast=0;collapsible=1;marginBottom=0;whiteSpace=wrap;html=1;" parent="1" vertex="1">
          <mxGeometry x="220" y="380" width="140" height="52" as="geometry" />
        </mxCell>
        <mxCell id="AloR8kPqKaJr0pB_M7WY-14" value="- cnpj: long" style="text;strokeColor=none;fillColor=none;align=left;verticalAlign=top;spacingLeft=4;spacingRight=4;overflow=hidden;rotatable=0;points=[[0,0.5],[1,0.5]];portConstraint=eastwest;whiteSpace=wrap;html=1;" parent="AloR8kPqKaJr0pB_M7WY-13" vertex="1">
          <mxGeometry y="26" width="140" height="26" as="geometry" />
        </mxCell>
        <mxCell id="AloR8kPqKaJr0pB_M7WY-17" value="PessoaFisica" style="swimlane;fontStyle=0;childLayout=stackLayout;horizontal=1;startSize=26;fillColor=none;horizontalStack=0;resizeParent=1;resizeParentMax=0;resizeLast=0;collapsible=1;marginBottom=0;whiteSpace=wrap;html=1;" parent="1" vertex="1">
          <mxGeometry y="380" width="140" height="104" as="geometry" />
        </mxCell>
        <mxCell id="AloR8kPqKaJr0pB_M7WY-18" value="- cpfPessoa: long" style="text;strokeColor=none;fillColor=none;align=left;verticalAlign=top;spacingLeft=4;spacingRight=4;overflow=hidden;rotatable=0;points=[[0,0.5],[1,0.5]];portConstraint=eastwest;whiteSpace=wrap;html=1;" parent="AloR8kPqKaJr0pB_M7WY-17" vertex="1">
          <mxGeometry y="26" width="140" height="26" as="geometry" />
        </mxCell>
        <mxCell id="AloR8kPqKaJr0pB_M7WY-19" value="- rg: String" style="text;strokeColor=none;fillColor=none;align=left;verticalAlign=top;spacingLeft=4;spacingRight=4;overflow=hidden;rotatable=0;points=[[0,0.5],[1,0.5]];portConstraint=eastwest;whiteSpace=wrap;html=1;" parent="AloR8kPqKaJr0pB_M7WY-17" vertex="1">
          <mxGeometry y="52" width="140" height="26" as="geometry" />
        </mxCell>
        <mxCell id="AloR8kPqKaJr0pB_M7WY-20" value="- idade: int" style="text;strokeColor=none;fillColor=none;align=left;verticalAlign=top;spacingLeft=4;spacingRight=4;overflow=hidden;rotatable=0;points=[[0,0.5],[1,0.5]];portConstraint=eastwest;whiteSpace=wrap;html=1;" parent="AloR8kPqKaJr0pB_M7WY-17" vertex="1">
          <mxGeometry y="78" width="140" height="26" as="geometry" />
        </mxCell>
        <mxCell id="AloR8kPqKaJr0pB_M7WY-21" value="" style="endArrow=block;endSize=16;endFill=0;html=1;rounded=0;" parent="1" source="AloR8kPqKaJr0pB_M7WY-17" target="AloR8kPqKaJr0pB_M7WY-1" edge="1">
          <mxGeometry width="160" relative="1" as="geometry">
            <mxPoint x="100" y="420" as="sourcePoint" />
            <mxPoint x="260" y="420" as="targetPoint" />
            <Array as="points">
              <mxPoint x="190" y="320" />
            </Array>
          </mxGeometry>
        </mxCell>
        <mxCell id="AloR8kPqKaJr0pB_M7WY-22" value="" style="endArrow=block;endSize=16;endFill=0;html=1;rounded=0;" parent="1" source="AloR8kPqKaJr0pB_M7WY-13" target="AloR8kPqKaJr0pB_M7WY-7" edge="1">
          <mxGeometry width="160" relative="1" as="geometry">
            <mxPoint x="300" y="250" as="sourcePoint" />
            <mxPoint x="460" y="250" as="targetPoint" />
            <Array as="points">
              <mxPoint x="190" y="320" />
            </Array>
          </mxGeometry>
        </mxCell>
        <mxCell id="_P6Zm8kJ-BQUl3ym6Ntv-1" value="Conta" style="swimlane;fontStyle=1;align=center;verticalAlign=top;childLayout=stackLayout;horizontal=1;startSize=26;horizontalStack=0;resizeParent=1;resizeParentMax=0;resizeLast=0;collapsible=1;marginBottom=0;whiteSpace=wrap;html=1;" vertex="1" parent="1">
          <mxGeometry x="460" y="100" width="160" height="216" as="geometry" />
        </mxCell>
        <mxCell id="_P6Zm8kJ-BQUl3ym6Ntv-2" value="# numeroConta : long" style="text;strokeColor=none;fillColor=none;align=left;verticalAlign=top;spacingLeft=4;spacingRight=4;overflow=hidden;rotatable=0;points=[[0,0.5],[1,0.5]];portConstraint=eastwest;whiteSpace=wrap;html=1;" vertex="1" parent="_P6Zm8kJ-BQUl3ym6Ntv-1">
          <mxGeometry y="26" width="160" height="26" as="geometry" />
        </mxCell>
        <mxCell id="_P6Zm8kJ-BQUl3ym6Ntv-5" value="# agenciaConta : long" style="text;strokeColor=none;fillColor=none;align=left;verticalAlign=top;spacingLeft=4;spacingRight=4;overflow=hidden;rotatable=0;points=[[0,0.5],[1,0.5]];portConstraint=eastwest;whiteSpace=wrap;html=1;" vertex="1" parent="_P6Zm8kJ-BQUl3ym6Ntv-1">
          <mxGeometry y="52" width="160" height="26" as="geometry" />
        </mxCell>
        <mxCell id="_P6Zm8kJ-BQUl3ym6Ntv-6" value="# senhaConta : String" style="text;strokeColor=none;fillColor=none;align=left;verticalAlign=top;spacingLeft=4;spacingRight=4;overflow=hidden;rotatable=0;points=[[0,0.5],[1,0.5]];portConstraint=eastwest;whiteSpace=wrap;html=1;" vertex="1" parent="_P6Zm8kJ-BQUl3ym6Ntv-1">
          <mxGeometry y="78" width="160" height="26" as="geometry" />
        </mxCell>
        <mxCell id="_P6Zm8kJ-BQUl3ym6Ntv-7" value="# saldoConta : float" style="text;strokeColor=none;fillColor=none;align=left;verticalAlign=top;spacingLeft=4;spacingRight=4;overflow=hidden;rotatable=0;points=[[0,0.5],[1,0.5]];portConstraint=eastwest;whiteSpace=wrap;html=1;" vertex="1" parent="_P6Zm8kJ-BQUl3ym6Ntv-1">
          <mxGeometry y="104" width="160" height="26" as="geometry" />
        </mxCell>
        <mxCell id="_P6Zm8kJ-BQUl3ym6Ntv-3" value="" style="line;strokeWidth=1;fillColor=none;align=left;verticalAlign=middle;spacingTop=-1;spacingLeft=3;spacingRight=3;rotatable=0;labelPosition=right;points=[];portConstraint=eastwest;strokeColor=inherit;" vertex="1" parent="_P6Zm8kJ-BQUl3ym6Ntv-1">
          <mxGeometry y="130" width="160" height="8" as="geometry" />
        </mxCell>
        <mxCell id="_P6Zm8kJ-BQUl3ym6Ntv-4" value="+ abrir(Pessoa p): void" style="text;strokeColor=none;fillColor=none;align=left;verticalAlign=top;spacingLeft=4;spacingRight=4;overflow=hidden;rotatable=0;points=[[0,0.5],[1,0.5]];portConstraint=eastwest;whiteSpace=wrap;html=1;" vertex="1" parent="_P6Zm8kJ-BQUl3ym6Ntv-1">
          <mxGeometry y="138" width="160" height="26" as="geometry" />
        </mxCell>
        <mxCell id="_P6Zm8kJ-BQUl3ym6Ntv-8" value="+ depositar(Pessoa p): void" style="text;strokeColor=none;fillColor=none;align=left;verticalAlign=top;spacingLeft=4;spacingRight=4;overflow=hidden;rotatable=0;points=[[0,0.5],[1,0.5]];portConstraint=eastwest;whiteSpace=wrap;html=1;" vertex="1" parent="_P6Zm8kJ-BQUl3ym6Ntv-1">
          <mxGeometry y="164" width="160" height="26" as="geometry" />
        </mxCell>
        <mxCell id="_P6Zm8kJ-BQUl3ym6Ntv-9" value="+ sacar(Pessoa p): void" style="text;strokeColor=none;fillColor=none;align=left;verticalAlign=top;spacingLeft=4;spacingRight=4;overflow=hidden;rotatable=0;points=[[0,0.5],[1,0.5]];portConstraint=eastwest;whiteSpace=wrap;html=1;" vertex="1" parent="_P6Zm8kJ-BQUl3ym6Ntv-1">
          <mxGeometry y="190" width="160" height="26" as="geometry" />
        </mxCell>
      </root>
    </mxGraphModel>
  </diagram>
</mxfile>
